<?xml version="1.0" encoding="UTF-8" standalone="no"?> <svg xmlns:dc="http://purl.org/dc/elements/1.1/" xmlns:cc="http://creativecommons.org/ns#" xmlns:rdf="http://www.w3.org/1999/02/22-rdf-syntax-ns#" xmlns:svg="http://www.w3.org/2000/svg" xmlns="http://www.w3.org/2000/svg" viewBox="0 0 46.000002 46.000002" height="46" width="46" xml:space="preserve" id="svg10" version="1.1"><metadata id="metadata16"></metadata><defs id="defs14"><clipPath id="clipPath26"><path id="path24" d="M 0,1000 H 1000 V 0 H 0 Z"></path></clipPath><clipPath id="clipPath34"><path id="path32" d="M 114.23,872.18 H 860.664 V 125.746 H 114.23 Z"></path></clipPath><clipPath id="clipPath50"><path id="path48" d="M 217.902,977.925 H 964.336 V 231.491 H 217.902 Z"></path></clipPath><clipPath id="clipPath66"><path id="path64" d="m 10.559,768.509 h 744.36 V 22.075 H 10.559 Z"></path></clipPath></defs><g transform="matrix(1.3333333,0,0,-1.3333333,0,46.000048)" id="g18"><g style="stroke-width:28.8253994" transform="matrix(0.03469162,0,0,0.03469162,0.53550352,-0.49359919)" id="g20"><g style="stroke-width:28.8253994" clip-path="url(#clipPath26)" id="g22"><g style="stroke-width:28.8253994" id="g28"><g style="stroke-width:28.8253994" id="g30"></g><g style="stroke-width:28.8253994" id="g42"><g style="opacity:0.64999402;stroke-width:28.8253994" id="g40" clip-path="url(#clipPath34)"><g style="stroke-width:28.8253994" id="g38" transform="translate(487.4473,125.7464)"><path id="path36" style="fill:#89898d;fill-opacity:1;fill-rule:nonzero;stroke:none;stroke-width:28.8253994" d="m 0,0 v 0 c -205.269,0 -373.217,165.874 -373.217,373.217 0,205.269 165.874,373.217 373.217,373.217 h 234.297 c 76.717,0 138.92,-62.203 138.92,-138.92 V 373.217 C 373.217,167.948 205.269,0 0,0"></path></g></g></g></g><g style="stroke-width:28.8253994" id="g44"><g style="stroke-width:28.8253994" id="g46"></g><g style="stroke-width:28.8253994" id="g58"><g style="opacity:0.5;stroke-width:28.8253994" id="g56" clip-path="url(#clipPath50)"><g style="stroke-width:28.8253994" id="g54" transform="translate(591.1187,231.4912)"><path id="path52" style="fill:#aeadb0;fill-opacity:1;fill-rule:nonzero;stroke:none;stroke-width:28.8253994" d="m 0,0 v 0 c -205.269,0 -373.217,165.874 -373.217,373.217 0,205.269 165.874,373.217 373.217,373.217 h 234.297 c 76.717,-2.074 138.92,-64.276 138.92,-138.92 V 371.143 C 373.217,165.874 207.343,0 0,0"></path></g></g></g></g><g style="stroke-width:28.8253994" id="g60"><g style="stroke-width:28.8253994" id="g62"></g><g style="stroke-width:28.8253994" id="g74"><g style="opacity:0.69999701;stroke-width:28.8253994" id="g72" clip-path="url(#clipPath66)"><g style="stroke-width:28.8253994" id="g70" transform="translate(383.7759,22.075)"><path id="path68" style="fill:#89898d;fill-opacity:1;fill-rule:nonzero;stroke:none;stroke-width:28.8253994" d="m 0,0 v 0 c -207.343,0 -373.217,165.874 -373.217,373.217 0,205.269 165.874,373.217 373.217,373.217 h 234.297 c 76.717,0 136.846,-62.203 136.846,-136.846 V 373.217 C 371.144,165.874 205.269,0 0,0"></path></g></g></g></g><g style="stroke-width:28.8253994" transform="translate(365.1837,403.2058)" id="g76"><path id="path78" style="fill:#ffffff;fill-opacity:1;fill-rule:nonzero;stroke:none;stroke-width:28.8253994" d="m 0,0 c 23.647,-12.809 56.654,-22.662 94.587,-22.662 29.066,0 56.653,5.913 56.653,33.5 0,64.043 -162.571,23.647 -162.571,148.778 0,82.763 80.793,105.424 149.763,105.424 33.007,0 65.521,-4.926 88.675,-12.808 l -5.911,-70.941 c -23.647,10.839 -50.25,15.765 -76.359,15.765 -23.155,0 -61.581,-1.97 -61.581,-32.021 0,-55.669 162.571,-18.228 162.571,-142.373 0,-89.168 -74.881,-113.307 -151.24,-113.307 -32.022,0 -71.926,4.925 -102.469,14.778 z"></path></g></g></g></g></svg> 