<?xml version="1.0" encoding="UTF-8" standalone="no"?> <svg xmlns:dc="http://purl.org/dc/elements/1.1/" xmlns:cc="http://creativecommons.org/ns#" xmlns:rdf="http://www.w3.org/1999/02/22-rdf-syntax-ns#" xmlns:svg="http://www.w3.org/2000/svg" xmlns="http://www.w3.org/2000/svg" viewBox="0 0 61.333332 61.333332" height="61.333332" width="61.333332" xml:space="preserve" id="svg44" version="1.1"><metadata id="metadata50"></metadata><defs id="defs48"><clipPath id="clipPath60"><path id="path58" d="M 0,46 H 46 V 0 H 0 Z"></path></clipPath><clipPath id="clipPath68"><path id="path66" d="M 5,41 H 41 V 5 H 5 Z"></path></clipPath><clipPath id="clipPath84"><path id="path82" d="m 10,46.1 h 36 v -36 H 10 Z"></path></clipPath><clipPath id="clipPath100"><path id="path98" d="M 0,36 H 35.9 V 0 H 0 Z"></path></clipPath></defs><g transform="matrix(1.3333333,0,0,-1.3333333,0,61.333333)" id="g52"><g id="g54"><g clip-path="url(#clipPath60)" id="g56"><g id="g62"><g id="g64"></g><g id="g76"><g style="opacity:0.64999402" id="g74" clip-path="url(#clipPath68)"><g id="g72" transform="translate(23,5)"><path id="path70" style="fill:#3f7de0;fill-opacity:1;fill-rule:nonzero;stroke:none" d="m 0,0 v 0 c -9.9,0 -18,8 -18,18 0,9.9 8,18 18,18 H 11.3 C 15,36 18,33 18,29.3 V 18 C 18,8.1 9.9,0 0,0"></path></g></g></g></g><g id="g78"><g id="g80"></g><g id="g92"><g style="opacity:0.5" id="g90" clip-path="url(#clipPath84)"><g id="g88" transform="translate(28,10.1)"><path id="path86" style="fill:#00dffc;fill-opacity:1;fill-rule:nonzero;stroke:none" d="m 0,0 v 0 c -9.9,0 -18,8 -18,18 0,9.9 8,18 18,18 H 11.3 C 15,35.9 18,32.9 18,29.3 V 17.9 C 18,8 10,0 0,0"></path></g></g></g></g><g id="g94"><g id="g96"></g><g id="g108"><g style="opacity:0.69999701" id="g106" clip-path="url(#clipPath100)"><g id="g104" transform="translate(18)"><path id="path102" style="fill:#377dff;fill-opacity:1;fill-rule:nonzero;stroke:none" d="m 0,0 v 0 c -10,0 -18,8 -18,18 0,9.9 8,18 18,18 h 11.3 c 3.7,0 6.6,-3 6.6,-6.6 V 18 C 17.9,8 9.9,0 0,0"></path></g></g></g></g><g transform="translate(16.4082,18.5044)" id="g110"><path id="path112" style="fill:#ffffff;fill-opacity:1;fill-rule:nonzero;stroke:none" d="m 0,0 c 1.035,-0.56 2.479,-0.991 4.138,-0.991 1.272,0 2.479,0.258 2.479,1.465 0,2.802 -7.113,1.035 -7.113,6.509 0,3.621 3.535,4.613 6.552,4.613 1.444,0 2.867,-0.216 3.88,-0.561 L 9.677,7.932 C 8.643,8.406 7.479,8.621 6.337,8.621 5.324,8.621 3.642,8.535 3.642,7.22 c 0,-2.435 7.113,-0.797 7.113,-6.229 0,-3.901 -3.276,-4.957 -6.617,-4.957 -1.401,0 -3.147,0.216 -4.483,0.647 z"></path></g></g></g></g></svg> 